<svg xmlns="http://www.w3.org/2000/svg" viewBox="0 0 83.202 76"><path d="m37.802 57.7-2.6 6c4.9-.5 9.5-.8 13.6-.8l-2.8-6.3c-2.7.4-5.5.8-8.2 1.1zm24.7-2.1c-1 2.6-2.1 5.2-3 7.6 10.1.8 16.1 2.4 16.1 2.4l4.7-9.9c-6.4-.2-12.3-.2-17.8-.1zm-59.7 13.9c-2.1 1.5-2.7 2.2-2.8 2.2-.1.1 4.6-1.7 11.8-3.6 6.8-1.8 10.2-2.4 13.9-3-.6-1.4-1.1-2.9-1.8-4.5-11.6 3.1-18 6.7-21.1 8.9z" fill="#d7182a"/><g fill="#222"><path d="m42.3 12.8 12.2 31.7L77.2 0 54.7 29.5 42.3 1.2 29.8 29.5 7.3 0l22.6 44.5"/><path d="M62.5 55.6c2.4-6.1 4.7-12.1 5.9-15.2C72.6 29.5 83.2 0 83.2 0L54.3 59.1C51.1 51 42.4 29.5 42.4 29.5 41.8 31 33.7 51 30.5 59.1L1.5 0S12 29.5 16.3 40.4c1.6 4 4.9 12.5 7.9 20.2l1.8 4.5c2.4 6.1 4.2 10.9 4.2 10.9l5.4-12.1 2.6-6 4.4-10 3.9 8.9 2.8 6.2 5.6 13s2.2-5.7 4.9-12.6c.6-2.5 1.7-5.1 2.7-7.8z"/></g></svg>
