<svg viewBox="0 0 77.641 77.575" xmlns="http://www.w3.org/2000/svg"><path d="M34.225.165c-.825.081-1.65.213-1.833.294-.184.082-.896.238-1.584.35-.687.11-1.662.334-2.166.5-.505.164-1.479.464-2.167.665-.687.202-1.325.427-1.417.501-.091.074-.611.29-1.155.481s-1.032.408-1.084.484c-.052.075-.525.31-1.052.521s-.959.442-.959.513-.168.173-.375.225c-.49.125-1.784.94-4.125 2.593-1.193.843-1.467 1.068-3.23 2.66-1.648 1.485-3.053 3-4.502 4.854-.322.413-.686.866-.808 1.006-.122.141-.404.554-.627.917s-.539.806-.702.984c-.164.177-.297.39-.297.47s-.23.48-.51.887-.587.964-.683 1.238c-.095.274-.232.498-.303.498-.072 0-.299.45-.504 1-.206.55-.426 1-.49 1-.063 0-.292.507-.508 1.125-.216.62-.487 1.275-.602 1.46-.115.182-.334.82-.486 1.415-.153.596-.336 1.16-.406 1.25-.127.163-.561 1.926-.761 3.084-.055.32-.166.733-.248.916-.493 1.114-.559 3.287-.622 20.25-.046 12.33-.011 17.527.123 18.22.516 2.67 3.165 5.725 5.583 6.44.367.108.847.285 1.067.394.599.294 35.58.282 35.875-.012.114-.115.411-.208.658-.208.692 0 4.273-.64 4.605-.823.162-.089.82-.284 1.462-.434.641-.149 1.316-.363 1.5-.475.183-.112.67-.3 1.083-.42 2.275-.658 6.504-2.925 9.333-5.004.504-.37 1.202-.865 1.551-1.1 1.251-.842 4.728-4.358 6.646-6.72 1.203-1.483 2.863-4.03 3.49-5.358.195-.412.447-.862.561-1 .114-.137.344-.625.511-1.083.168-.458.399-.983.513-1.167.114-.183.328-.708.474-1.166.147-.459.366-1.02.487-1.25.122-.229.356-1.017.521-1.75.165-.734.365-1.419.445-1.523.186-.244.8-4.4.801-5.426 0-.43.075-.828.167-.885.204-.126.229-5.358.026-5.484-.078-.048-.188-.784-.245-1.635-.114-1.7-.532-4.357-.769-4.88-.082-.184-.311-1.007-.509-1.83-.197-.823-.418-1.573-.492-1.667-.073-.094-.264-.583-.424-1.087-.161-.504-.383-1.067-.496-1.25-.112-.183-.343-.708-.513-1.167-.17-.458-.466-1.095-.658-1.416s-.439-.77-.55-1a8.96 8.96 0 0 0-.41-.747c-.116-.18-.616-.968-1.113-1.75-.779-1.226-2.065-3.01-2.766-3.837-1.717-2.025-6.352-6.19-8.02-7.207-.263-.16-.815-.515-1.228-.789-1.238-.82-2.75-1.614-4.916-2.582-1.813-.81-2.541-1.09-3.5-1.347-.55-.147-1.225-.367-1.5-.488s-1.288-.348-2.25-.505c-.963-.156-1.9-.349-2.084-.429-1.003-.439-7.54-.617-10.833-.294m7.024 14.29c.17.095.866.323 1.547.507.68.184 1.28.393 1.333.465.053.071.396.277.763.458 1.169.575 3.28 2.432 4.08 3.588.222.321.451.621.509.667.563.445 1.819 4.088 1.825 5.291.001.298.077.542.169.542.108 0 .167 2.361.167 6.75 0 3.712-.065 6.75-.143 6.75-.079 0-.189.431-.246.958-.122 1.136-.569 2.911-.764 3.037-.077.048-.307.482-.514.963-.206.482-.424.875-.485.875-.06 0-.249.244-.419.542-.796 1.394-3.09 3.367-4.697 4.038-.35.147-.677.325-.726.397-.149.217-2.076.693-3.249.803-.606.057-1.141.167-1.189.245-.115.185-1.068.185-1.068 0 0-.078-.544-.19-1.209-.249-1.606-.142-4.69-1.206-5.125-1.767-.046-.06-.345-.29-.666-.514s-.742-.576-.936-.784c-.194-.207-.433-.377-.531-.377-.097 0-.225-.148-.282-.329s-.271-.463-.475-.625c-.204-.163-.553-.596-.775-.963-.223-.367-.502-.766-.62-.887s-.215-.29-.215-.376c0-.085-.191-.549-.425-1.029-.901-1.852-.951-2.335-1.028-9.79-.082-8.054.043-9.474 1.02-11.56 1.321-2.822 3.263-5.008 5.442-6.126.408-.21.785-.443.837-.519.053-.077.653-.29 1.334-.477.68-.185 1.387-.406 1.57-.489.767-.349 4.575-.36 5.191-.015m-3.524 4.123c-3.372.408-5.599 2.068-7.015 5.228l-.485 1.084v15.666l.5 1.226c.726 1.78 2.494 3.605 4.333 4.476l1.334.632h2.25c2.015 0 2.337-.042 3.083-.393a338.89 338.89 0 0 1 1.353-.634c.964-.446 2.669-2.33 3.349-3.7l.631-1.273.056-7.417c.053-7.113-.07-9.667-.465-9.667-.071 0-.254-.328-.408-.73-1.081-2.832-5.034-4.92-8.516-4.498m1.711 8.393c.452.005 1.351 1.166 1.458 1.881.058.388.081 2.932.051 5.654l-.053 4.95-.573.59c-1.134 1.17-2.677.98-3.403-.42l-.441-.85v-9.97l.49-.788c.508-.816 1.276-1.263 1.927-1.122a3.5 3.5 0 0 0 .544.075m20.916 17.673.67.671-.1 1.073c-.055.59-.253 1.41-.44 1.82s-.34.84-.34.952c0 .265-1.517 3.324-1.793 3.617a3.278 3.278 0 0 0-.402.584c-.814 1.527-3.813 4.525-5.905 5.904-1.752 1.154-3.785 2.177-5.234 2.635-.504.16-.954.341-1 .406-.116.164-2.591.642-3.995.773-.644.06-1.171.173-1.171.251 0 .186-3.787.187-3.902.001-.048-.078-.596-.186-1.218-.24-1.369-.118-3.894-.609-4.146-.806-.1-.078-.625-.288-1.166-.465-.836-.274-2.604-1.123-4.235-2.032-1.749-.975-4.798-3.83-6.3-5.898-.321-.44-1.53-2.539-1.633-2.834a2.341 2.341 0 0 0-.321-.583c-.112-.138-.372-.775-.578-1.417-.207-.64-.442-1.238-.522-1.325-.81-.878.382-2.918 1.775-3.038.889-.077 1.912.373 1.912.84 0 .128.103.318.23.423.126.104.278.498.338.875.445 2.783 3.872 7.257 7.092 9.26 4.475 2.78 12.31 3.902 16.09 2.302.275-.116.838-.304 1.25-.416.944-.258 2.702-1.085 3.614-1.7.383-.259.745-.47.805-.47.497 0 3.83-3.3 4.505-4.459.173-.298.364-.542.425-.542s.27-.37.465-.824c.195-.453.419-.863.498-.912s.31-.635.512-1.3c.203-.668.438-1.344.523-1.503.084-.159.153-.417.153-.573 0-1.589 2.318-2.276 3.544-1.05" fill="#02bf6f" fill-rule="evenodd"/></svg>